<svg xmlns="http://www.w3.org/2000/svg" xml:space="preserve" width="388" height="316" overflow="hidden"><defs><clipPath id="a"><path d="M380 152h388v316H380z"/></clipPath><clipPath id="b"><path d="M380 152h387v315H380z"/></clipPath><clipPath id="c"><path d="M380 152h387v315H380z"/></clipPath><clipPath id="d"><path d="M380 152h387v315H380z"/></clipPath></defs><g clip-path="url(#a)" transform="translate(-380 -152)"><g clip-path="url(#b)"><g clip-path="url(#c)"><g clip-path="url(#d)"><path d="M572.229 152.383c-.065 2.265-3.162 28.148-3.42 28.407-.129.13-3.743-2.459-7.937-5.888-4.194-3.43-8.065-6.148-8.453-6.148-1.742 0-.58 2.071 5.292 9.448 4 5.047 5.807 7.83 5.291 8.088-.387.194-7.098 1.036-14.777 1.877-10.259 1.1-14.066 1.747-14.324 2.394a.835.835 0 0 0 .451 1.165c.387.194 7.292 1.035 15.228 1.94 7.937.907 14.583 1.683 14.648 1.813.064.13-2.904 3.882-6.582 8.476-6.259 7.7-7.162 9.448-5.227 9.448.452 0 4.259-2.783 8.453-6.148 4.194-3.364 7.808-6.082 7.872-5.953.065.13 1.162 11.842 2.259 26.078 1.097 14.235 2.129 25.948 2.323 26.141.193.195.516 0 .645-.388.968-2.782 7.872-11.906 12.389-16.435 11.937-11.907 26.068-18.442 43.748-20.125 28.65-2.717 55.106 12.618 68.785 39.86 12.905 25.883 11.292 54.42-5.098 88.262-2.645 5.5-4.645 10.094-4.516 10.224a68.31 68.31 0 0 0 6.904 1.812c14.002 3.17 16.454 4.982 13.808 9.965-2.129 4.206-10.13 8.282-22.906 11.646-7.421 1.942-17.422 4.013-17.422 3.56 0-.13 1.936-2.653 4.323-5.565 27.294-33.907 34.586-78.167 18.519-113.045-4.839-10.547-13.873-21.612-22.907-28.018-6.001-4.335-15.357-8.67-22.842-10.612-8.84-2.33-20.067-2.459-28.069-.324-13.873 3.689-27.165 12.554-37.683 25.301a83.7 83.7 0 0 0-5.936 7.7c-.645 1.1-1.355 1.942-1.613 1.876a55.819 55.819 0 0 1-4.323-5.37c-5.162-6.924-15.358-16.76-21.681-20.9-10.389-6.795-20.713-9.966-32.327-10.03-8.582 0-13.938.97-22.197 4.012-41.039 15.012-58.654 67.75-39.103 116.862 1.549 3.882 2.775 7.182 2.645 7.247-.128.065-4.13.906-9.033 1.812-30.714 5.694-51.685 13.718-61.429 23.489-5.613 5.564-7.291 12.1-5.033 19.283 5.808 18.506 37.103 31.966 90.272 38.76 18.906 2.394 51.233 4.853 64.139 4.853h4.968l9.356 7.894c5.098 4.4 12.583 10.613 16.519 13.912l7.162 5.954 12.518-10.419a1787.98 1787.98 0 0 0 16.39-13.846l3.936-3.495h5.162c6.969 0 25.552-1.035 40.2-2.33 64.784-5.435 103.951-18.635 112.984-38.048 4.001-8.54 3.098-15.076-3.097-21.742-9.098-9.922-28.305-17.708-57.621-23.359-4.066-.777-7.485-1.489-7.615-1.553-.129-.065 1.097-2.2 2.646-4.594 21.229-33.002 21.681-76.29 1.162-107.35-5.808-8.8-17.164-18.895-26.843-23.748-16.712-8.542-37.619-9.836-56.46-3.624-17.68 5.824-33.554 18.312-40.652 32.095-.774 1.553-1.548 2.718-1.613 2.588-.258-.258 3.356-46.46 3.678-46.783.129-.13 3.872 2.653 8.195 6.212 7.485 6.017 9.034 6.923 9.55 5.37.129-.323-2.71-4.206-6.259-8.606-3.549-4.4-6.324-8.153-6.195-8.282.129-.13 6.711-.97 14.648-1.877 7.936-.906 14.583-1.747 14.712-1.876.129-.13.064-.647-.129-1.165-.259-.647-4.13-1.294-14.067-2.33-7.614-.776-14.196-1.553-14.647-1.682-.452-.13 1.677-3.365 5.355-7.894 3.356-4.142 6.13-7.96 6.13-8.412 0-1.942-1.678-1.036-9.098 4.982-4.323 3.56-8.066 6.277-8.259 6.083-.194-.194-1.097-6.795-2.001-14.689-1.419-12.424-1.742-14.365-2.71-14.56-.645-.129-1.161 0-1.161.324Zm-41.684 93.956a33.275 33.275 0 0 1 12.97 8.412c3.484 3.559 4.259 3.818 5.549 2.264 1.42-1.747 5.291-.776 9.356 2.395 4.259 3.3 8.324 8.8 12.131 16.436l2.839 5.63 3.678-7.119c2.065-3.947 5.098-8.736 6.84-10.676 5.614-6.277 11.357-9.124 13.486-6.6.358.466.856.806 1.419.97.388 0 2.517-1.683 4.775-3.818 9.228-8.412 19.874-11.388 32.005-8.8 19.035 4.012 33.425 18.377 39.49 39.278 2.387 8.347 3.226 16.177 2.775 26.271-.452 10.418-2.001 17.924-5.872 29.442-1.549 4.53-2.452 8.154-2.065 8.023 1.161-.388 6.065-8.994 8.388-14.817 4.969-12.23 6.517-21.936 6.001-37.078-.258-8.088-.645-11.323-1.742-14.882-1.871-5.954-2.194-8.09-1.42-8.09 2.581 0 5.614 12.684 6.388 26.596.71 13.2-1.419 24.265-7.355 38.306-5.808 13.783-14.325 26.207-27.101 39.343l-7.292 7.506-9.55.776c-35.553 2.783-88.852 2.783-125.631 0l-9.679-.71-6.388-6.536c-15.357-15.854-24.843-30.607-30.908-48.014-5.291-15.206-5.807-33.065-1.549-49.954 1.29-4.983 2.904-7.7 3.936-6.6.194.193-.387 2.523-1.226 5.176-4.194 13.266-3.484 33.26 1.678 48.79 2.194 6.536 7.872 17.86 9.808 19.542 1.549 1.424 1.613 1.682-1.678-7.895-8.969-25.882-7.55-51.118 4-71.114 4.647-8.088 14.906-17.082 23.424-20.576 9.937-4.012 20.577-4.724 28.52-1.877Zm-60.912 19.348c0 1.23-1.162 2.717-2.065 2.717-.774 0-.58-2.264.258-3.105 1.097-1.1 1.807-.971 1.807.388Zm210.354 2.135c0 1.1-1.871.582-2.581-.711-1.097-2.071 0-3.042 1.419-1.36a5.78 5.78 0 0 1 1.162 2.084Zm-217.323 93.89c2.84 4.919 7.743 11.713 13.099 18.378l1.677 2.07-5.033-.97c-18.647-3.494-31.875-8.735-35.037-13.913-3.29-5.37-.839-7.311 13.486-10.546a56.988 56.988 0 0 0 7.098-1.942c.193-.258.58-.065.903.454.323.517 1.936 3.364 3.807 6.47Zm-23.681-3.04c-3.936 1.618-6.775 4.077-6.775 5.953 0 .583 1.226 2.135 2.71 3.559 2.968 2.782 2.84 3.947-.323 2.33a18.577 18.577 0 0 0-3.807-1.425 2.584 2.584 0 0 1-2.194-2.07c-.387-1.423.065-2.07 2.71-4.465 2.904-2.652 8.324-5.435 10.583-5.435.516.013-.775.66-2.904 1.553Zm276.106 2.718c3.162 3.17 1.678 8.088-3.613 11.712-12.131 8.282-34.07 13.588-70.979 16.953-26.004 2.33-70.785 3.753-71.301 2.265-.129-.454 7.937-.971 24.455-1.488 43.491-1.424 68.204-3.625 88.014-7.96 13.486-2.911 26.197-8.089 30.972-12.553 3.807-3.623 3.678-7.96-.258-10.094-2.968-1.553-3.355-2.006-.903-1.165a11.485 11.485 0 0 1 3.613 2.33Zm-304.304 19.683c.387 1.748.84 2.071 2.581 2.2 2.969.26 3.227.778 1.226 2.46-1.677 1.294-1.742 1.553-1.032 3.558.968 2.783.452 3.171-1.936 1.424l-2-1.359-1.871 1.294c-2.517 1.812-2.646 1.747-1.872-1.035.581-2.265.517-2.459-1.484-4.206l-2.194-1.748 1.936-.129a18.52 18.52 0 0 1 2.71 0c.387.065 1.097-.905 1.484-2.2.904-2.795 1.742-2.924 2.452-.259Zm327.34.195c.516 1.488 1.097 2.07 1.806 1.876a5.442 5.442 0 0 1 2.581.324l1.614.583-2.001 1.488c-1.742 1.23-1.935 1.681-1.419 3.04 1.161 3.171.774 3.689-1.742 2.2l-2.323-1.358-1.872 1.358c-2.064 1.489-2.452.842-1.226-2.264.517-1.424.388-1.747-1.29-2.783-2.388-1.359-2.452-2.135-.323-2.2.904-.064 1.936-.13 2.388-.193.451-.066 1.032-1.036 1.29-2.2.71-2.654 1.549-2.654 2.51.116Zm-289.27 2.33c6.97 3.17 5.163 12.617-2.968 14.882-3.484.97-5.162.776-6.581-.647-2.84-2.848-.71-5.5 4.13-4.983 2.71.259 3.42.065 4.71-1.23 1.935-1.94 1.871-3.105-.194-4.722-7.291-5.76-24.778 7.247-25.94 19.282-.386 4.53 1.098 7.183 4.13 7.183 2.775 0 5.163-1.165 7.615-3.818 2.064-2.136 2.064-2.136-2.517-3.107-2.13-.452-2.646-.84-2.775-2.199-.322-2.977 1.29-3.559 6.195-2.33 2.178.565 4.402.933 6.646 1.1 1.355 0 2.71.453 3.162.972.71.84.645 1.293-.581 2.781-4.323 5.371-5.291 7.442-5.098 11.13l.194 3.559-2.13.194c-3.161.324-4.194-.841-3.806-4.27l.322-2.783-1.42 1.23c-2.258 2.07-4 2.718-7.29 2.718-3.485 0-5.55-1.1-6.905-3.754-3.29-6.6-.71-15.465 6.646-22.777 4.646-4.594 8.97-7.247 14.325-8.67 4.71-1.308 6.84-1.243 10.13.245Zm312.822 2.329c2.193 5.24 0 12.359-5.098 16.824-3.355 2.847-12.002 8.024-13.486 8.024a1.085 1.085 0 0 1-1.161-1.166c0-.841 1.548-1.941 5.291-3.688 6.775-3.3 12.324-8.541 13.421-12.683.775-2.781.645-3.752-1.097-9.253-.71-2.148 1.097-.466 2.13 1.929ZM387.04 384.05c-.24.746-.564 1.463-.968 2.135a12.043 12.043 0 0 0-.968 4.464c0 5.76 5.162 11.453 14.583 15.919 4.517 2.199 5.872 3.623 3.871 4.4-1.097.452-9.678-4.4-13.55-7.507-5.614-4.659-8.001-12.617-5.356-17.794 1.033-1.89 2.446-2.86 2.388-1.63Zm291.334 4.528c.774.712.968 1.619.71 3.171l-.452 2.071 3.742-.841c2.065-.518 6.195-1.683 9.163-2.589 6.582-1.941 7.162-2.005 7.162-.258 0 1.876-4.065 3.493-12.84 5.047-4.065.776-7.614 1.359-7.872 1.359s-1.033.97-1.613 2.07c-.581 1.1-3.356 6.083-6.195 10.936-4.001 6.924-5.098 9.448-5.227 11.647-.193 3.688 1.226 4.012 4.517.97 2.904-2.588 5.098-6.34 7.872-13.653 2.13-5.564 4.775-9.188 6.84-9.511 2.194-.324 1.871 2.2-.839 7.7-4.839 9.705-6.452 16.113-4.129 16.889 1.613.517 5.033-3.947 6.581-8.607 3.872-11.84 9.679-19.088 15.357-19.088 2.969 0 4.324 2.07 4.324 6.47-.065 3.43.064 3.688 1.097 3.17 1.419-.775 2.323-2.393 3.549-6.6 1.161-3.947 3.032-6.276 5.162-6.276 1.097 0 1.484.389 1.484 1.36 0 1.099.258 1.229 1.484.776 3.032-1.1 6.323-.518 7.936 1.359.839.97 1.549 2.2 1.549 2.652 0 .453-.968 3.365-2.194 6.277-3.742 9.124-3.742 11.906.129 9.188 1.936-1.358 2.581-.646 1.355 1.554s-5.355 3.752-7.485 2.782c-2-.906-1.935-3.235.452-10.288 1.097-3.236 1.936-6.6 1.936-7.506 0-2.266-1.742-3.106-4.323-2.007-2.388 1.036-4.001 3.948-7.615 13.783-2.839 7.766-4.645 10.742-6.71 11-2.775.454-2.775-.775-.065-6.923 2.904-6.73 2.839-6.536 1.807-6.536-.452 0-2.129 2.524-3.743 5.565a41.514 41.514 0 0 1-5.291 8.088c-2.064 2.136-2.839 2.524-5.162 2.524-2.903 0-5.033-1.424-5.033-3.364 0-.648-.258-1.165-.645-1.165a.645.645 0 0 0-.645.582c0 1.23-3.291 4.465-5.485 5.565-2.129.97-2.516.97-3.807.065a5.495 5.495 0 0 1-1.936-3.107l-.451-2.135-1.614 2.135c-3.226 4.077-9.807 6.083-11.227 3.43a7.962 7.962 0 0 1-.645-2.718c0-1.23-.452-.97-3.485 1.942-2.516 2.33-4.065 3.3-5.291 3.3-2.065 0-4.129-1.683-4.129-3.365 0-.906-.581-.582-2.581 1.424-2.259 2.264-2.969 2.588-5.421 2.588-3.29 0-4.904-1.553-4.904-4.789v-1.876l-2.645 3.042c-3.162 3.558-5.937 5.176-8.066 4.658-3.807-.97-2.645-8.088 3.355-21.548.259-.452-.129-1.035-.709-1.293-1.678-.583-4.065 2.588-9.098 12.294-5.034 9.706-6.905 11.453-12.067 11.453-2.903 0-6.904-1.424-6.904-2.459a4.736 4.736 0 0 0-.968-1.682c-.903-1.23-.968-1.165-2.323.517-2.516 3.236-8.195 4.789-10.13 2.847-1.743-1.747-.581-7.44 3.355-16.242 2.839-6.276 1.807-8.994-2.517-6.664-2.645 1.424-4.904 5.5-7.807 14.106-2.839 8.477-3.549 9.577-6.324 9.577-1.161 0-2.516-.453-2.968-.97-1.032-1.295-1.807-1.23-4.839.324-1.743.905-3.227 1.228-4.517.97-2.065-.389-5.485-3.3-5.485-4.659 0-1.36-.387-1.036-3.291 1.747-3.936 3.818-8.388 4.14-10.259.647-.646-1.295-.71-1.295-3.098 0-6.904 3.688-13.615-1.23-13.679-10.03 0-7.312 2.839-14.171 8.195-19.8 4.194-4.4 8.517-6.471 14.389-6.924 3.613-.194 4.452-.065 6.001 1.165 3.291 2.652 1.807 9.706-2.71 12.747-2.775 1.877-5.614 1.941-6.195.194-.58-1.747.581-3.559 3.807-5.759 3.227-2.2 3.936-3.559 2.581-4.918s-3.419-1.23-7.291.712c-5.936 2.977-11.357 12.1-12.131 20.318-.258 2.977-.064 3.883 1.226 5.824 1.226 1.812 2 2.33 3.936 2.459 2.065.194 2.71-.13 5.291-2.782 3.356-3.495 3.678-4.854 1.162-4.854-4.13 0-5.937-1.552-4.969-4.076.581-1.553 1.549-1.682 7.421-.906 8.259 1.164 8.517 1.618 4.129 7.312-2.774 3.559-3.613 6.212-2.258 7.054 2.194 1.358 5.227-2.848 6.517-8.801 1.42-6.73 5.743-12.748 10.776-14.947 8.388-3.754 13.228 6.535 5.485 11.582-.968.647-3.485 1.294-5.679 1.489l-3.871.322-.194 3.495c-.193 2.847.065 3.753 1.226 4.982 4.452 4.789 11.938-1.747 15.099-13.005 1.484-5.371 2.904-8.607 4.001-8.995 1.29-.518 2.129.065 2.129 1.618 0 1.164.194 1.164 2.581-.453 3.485-2.33 7.55-2.783 9.679-1.035 2.129 1.747 1.936 4.918-.71 12.23-2.387 6.73-3.613 11.647-2.968 12.294.516.453 4.065-2.718 5.098-4.594a32.665 32.665 0 0 0 1.548-5.371c1.097-5.242 3.678-10.095 6.969-12.878 6.066-5.176 11.937-3.817 12.002 2.783 0 3.818-2.194 6.277-6.646 7.312-6.195 1.488-7.55 2.265-7.55 4.53 0 4.983 3.356 7.376 7.485 5.435 2.839-1.359 4.646-3.688 8.969-11.712 4.582-8.412 5.679-9.77 8.582-10.288a23.13 23.13 0 0 0 4.775-1.619c3.226-1.617 4.259-1.552 4.775.454.323 1.165.065 2.135-.968 3.364-2 2.588-4.194 6.989-6.13 12.295-2 5.63-2.129 7.247-.516 7.247 2 0 4.646-3.494 6.388-8.477 3.291-9.577 9.679-16.759 14.776-16.759 1.936 0 4.775 2.006 4.775 3.365 0 .389 1.162-.518 2.517-2.006 2.581-2.782 4.71-3.364 5.097-1.359.065.583-1.032 3.042-2.581 5.5-2.774 4.724-5.936 12.23-6.904 16.63-.774 3.365.581 3.948 3.291 1.423 3.807-3.623 5.872-7.57 9.163-17.47l3.355-9.965-5.678.388c-7.679.582-7.485-.647.258-1.617 3.291-.453 6.001-.842 6.065-.907.065-.064.71-1.293 1.42-2.717 2.452-4.931 6.388-6.873 8.84-4.414Zm-180.608 1.166c1.355 2.07.968 6.211-.968 10.158-.774 1.683-4.388 5.824-8.775 10.16-8.066 8.023-8.711 9.253-6.066 12.617 2.323 2.912 4.13 2.33 9.615-3.364 5.291-5.371 9.033-10.742 10.259-14.43.904-2.783 2.775-4.659 4.323-4.335 1.033.193 1.162 1.1.968 10.417-.258 13.912-1.29 17.342-6.065 19.154-3.355 1.294-6.904-2.135-6.904-6.665 0-2.265-.581-2.136-3.485.842a22.433 22.433 0 0 1-5.678 3.947c-2.71 1.164-3.484 1.23-5.42.647-2.323-.777-4.775-3.818-4.775-6.018 0-1.36-.839-1.424-2-.064-.452.581-2.517 1.876-4.582 2.91-5.743 2.913-8.26 2.395-8.26-1.811 0-2.847 2.324-9.706 5.228-15.53 1.29-2.588 2.129-4.853 1.87-5.047-1.032-.647-2.516.453-4.258 3.105-3.872 5.954-10.324 13.525-13.099 15.337-5.226 3.493-8.453 2.005-6.969-3.235.646-2.525 1.743-4.206 6.711-10.419 3.678-4.659 4.259-5.759 2-4.206-3.032 2.135-3.161.906-.193-1.747 4-3.494 4.581-3.882 6.13-3.365 2.065.648 1.548 3.17-1.484 6.924-6.517 8.024-8.195 11.518-5.614 11.518 2.581 0 8.324-7.248 11.744-14.688l1.871-4.206 3.29.258c1.94.182 3.893.095 5.808-.258 2.968-.647 4.775-.259 5.291 1.1.581 1.617-.258 2.782-3.032 4.464-3.033 1.747-4.646 3.753-7.098 8.607-1.613 3.17-2.452 7.44-1.613 8.282 1.355 1.359 9.55-5.63 10.71-9.124 1.743-5.047 8.067-14.817 12.454-19.218 4.711-4.736 6.388-5.319 8.066-2.73Zm-32.005 1.552c0 2.653-5.097 6.407-6.646 4.854-.71-.712 1.42-4.077 3.29-5.048 2.388-1.372 3.356-1.307 3.356.182Zm54.718 2.783c2 2.005-.193 5.435-4.775 7.571-3.226 1.552-4.258 1.359-2.645-.39a3.586 3.586 0 0 0 .645-2.975c-.387-1.942.581-3.494 2.71-4.336 1.871-.789 3.162-.789 4.065.117Zm59.493 46.071c0 .324-6.195 4.918-6.582 4.918a33.059 33.059 0 0 1-3.742-2.588l-3.485-2.588h6.905c3.807-.013 6.904.116 6.904.246Z"/><path d="M509.697 257.792c-15.938 4.271-28.585 19.865-32.005 39.407-5.291 30.607 11.099 60.89 41.168 76.096 3.484 1.748 6.646 3.042 7.033 2.783.387-.259.516-.194.322.195-.838 1.358 7.292 3.04 14.712 3.105 6.453 0 7.485-.194 11.034-1.812l3.936-1.876 3.549 2.006c4.001 2.265 7.227 2.588 8.195.841.323-.647.387-4.66.065-10.16-.839-13.134-.775-24.394.129-26.917a24.937 24.937 0 0 1 2.581-5.047c2.064-3.366 2.323-5.76.645-7.83-3.162-3.883-23.487-4.465-28.52-.712-2.646 1.941-2.517 5.63.322 9.383 3.162 4.14 3.549 5.435 3.549 11.259-.064 9.253-1.871 13.265-6.323 14.106-4.969.971-10.97-2.848-17.551-11.13a68.252 68.252 0 0 1-13.809-31.254c-2.452-14.3-.516-26.077 5.42-33.648 5.807-7.312 15.293-8.542 21.939-2.847 1.42 1.23 4.646 5.112 7.098 8.607 5.162 7.311 8.711 9.965 14.583 11.064 7.291 1.36 12.582-.323 13.55-4.335 1.807-7.312-5.743-21.353-14.26-26.4-5.033-3.042-7.033-3.042-9.808 0-2.129 2.329-2.194 2.393-3.484 1.164a47.347 47.347 0 0 1-3.937-4.465c-2.064-2.588-1.742-2.33 1.355.97 2.13 2.33 3.872 3.883 3.937 3.56 0-1.1-7.808-8.348-12.131-11.26-6.905-4.659-10.195-5.888-15.293-5.823a37.586 37.586 0 0 0-8.001.97Zm17.551 20.836c.581.259-.516.453-2.581.518-4.646 0-7.937 1.617-11.679 5.695-6.388 6.987-8.647 19.088-6.259 33.712a67.913 67.913 0 0 0 16.389 34.942l2.904 3.236-2.775-2.589c-8.324-7.764-15.228-21.354-17.809-34.812-1.161-6.018-1.29-17.666-.258-22.584 1.678-8.088 7.485-16.047 12.97-17.794 2.458-.841 7.427-.97 9.104-.324Zm26.262 95.574a19.278 19.278 0 0 1-3.355 2.07c-2.84 1.424-4.453 1.748-9.55 2.006-3.356.13-7.098 0-8.26-.324-1.613-.388-.322-.517 4.84-.517 6.259 0 7.356-.195 10.518-1.747 3.29-1.553 5.813-2.265 5.813-1.488Zm-24.068 2.652a1.287 1.287 0 0 1-1.226.065c-.516-.194-.323-.388.387-.388s1.097.13.845.323Z"/><path d="M621.72 257.986c-4.13 1.683-9.292 5.76-14.583 11.518-4.129 4.465-4.387 4.66-5.484 3.56-1.097-1.1-1.162-1.036-.775.517.387 1.553.452 1.553-.58.324-2.84-3.624-2.969-3.754-5.485-3.366-7.033.907-16.841 12.295-19.035 22.001l-.775 3.366-1.161-3.82c-1.484-4.722-5.033-10.158-9.034-13.975l-3.097-2.913 3.485 4.206c4.645 5.566 7.226 11.39 7.549 16.89.258 3.817.065 4.464-1.355 6.147-1.613 1.811-1.807 1.876-7.872 1.876-6.195 0-6.195 0-3.485.842 3.549 1.1 10.325.646 12.518-.778a5.688 5.688 0 0 0 2.065-2.976l.323-1.941 1.742 1.877c2.129 2.264 6.646 3.04 11.873 2.07 6.711-1.229 10.518-4.14 15.809-12.1 5.484-8.218 13.098-13.266 20.003-13.136l3.032.065-4.065.841c-7.227 1.618-12.389 5.63-18.261 14.3-5.355 7.96-9.549 10.612-18.002 11.26-5.42.388-5.485.388-2.388.906a26.29 26.29 0 0 0 6.388.13c7.034-.972 10.712-3.56 16.132-11.52 6.581-9.64 12.518-13.717 20.003-13.782 5.033 0 6.711.97 9.937 5.695 8.195 11.97 6.711 36.883-3.356 54.548-6.968 12.295-17.809 21.742-25.036 21.872-2.258.064-2.71-.195-3.548-1.812-1.033-2.136-1.743-12.036-1.097-15.4.193-1.166 1.548-3.754 2.968-5.63 2.903-3.883 3.355-6.73 1.355-9.19l-1.226-1.552.322 2.912c.259 2.394 0 3.3-1.355 5.176-4.129 5.695-4.452 6.86-4.129 14.366.258 4.917.645 7.442 1.419 8.606.646.905.775 1.617.387 1.617-1.677 0-3.226-5.564-3.29-12.036-.065-7.117.322-8.54 3.226-12.164 1.097-1.424 2.194-3.236 2.387-4.077 1.291-5.047-2.774-7.377-13.615-7.83-8.904-.323-14.066.583-16.518 3.107-1.162 1.165-2 1.553-2.452 1.1-.452-.454-.516.258-.258 2.005.258 2.136-.065 3.3-1.936 6.665a30.102 30.102 0 0 0-2.71 6.795c-.194 1.488-.065 9.512.323 17.86.387 8.347.516 15.658.258 16.241-.258.582-1.162 1.294-2.065 1.682-1.678.582-1.678.582.581.648 3.936.129 3.936 0 3.097-17.278-.839-17.471-.516-20.448 2.71-25.495a22.937 22.937 0 0 1 2.194-3.105 9.474 9.474 0 0 1 1.548 2.135c2.517 4.076 2.775 7.7 2.001 24.46-.517 11.776-.517 15.788.064 16.5 1.355 1.682 4.582.97 9.615-2.006 4.645-2.783 6.452-3.495 6.452-2.459 0 .583-2.258 1.942-8.388 5.112-4.194 2.2-4.194 2.2-1.807 2.2 1.613 0 3.872-.906 7.421-2.977 4.581-2.782 5.162-2.976 6.968-2.264 2.219.59 4.487.98 6.776 1.164 12.969 1.035 28.133-5.63 41.038-18.053 7.356-7.117 11.227-12.36 15.422-20.9 11.163-22.842 9.227-48.661-5.033-66.974-1.807-2.33-2.646-3.623-1.807-2.91 2.71 2.393 7.356 8.994 9.808 14.234 9.614 19.995 6.775 46.654-7.034 66.326-4.387 6.342-13.873 15.4-20.712 19.93-10.131 6.665-19.294 9.513-29.295 9.123-3.872-.193-5.227-.064-4.452.39.58.322 4.323.646 8.194.646 10.647 0 19.165-3.041 29.94-10.677 20.52-14.559 32.199-38.113 30.844-62.054-1.162-19.671-9.679-34.684-24.843-43.678-7.162-4.271-11.55-5.694-18.196-6.018-4.323-.116-6.13.064-8.582 1.035Z"/><path d="m614.558 307.164-.516 6.018-1.872-1.812c-1.032-.97-1.871-1.488-1.871-1.1.255.712.701 1.34 1.291 1.812.709.647 1.097 1.424.903 1.683-.194.259-2.581.582-5.291.647-6.001.064-4.517 1.1 1.678 1.164 2.193.065 4 .259 4 .518a6.343 6.343 0 0 1-1.419 2.006c-1.485 1.618-.517 1.423 1.548-.324.968-.841 1.097-.452 1.549 4.789.322 3.105.581 5.112.71 4.4.129-.712.322-3.3.516-5.694l.451-4.466 1.549 1.489c.839.777 1.678 1.294 1.871 1.1.194-.194-.258-.84-.968-1.488-2.064-1.877-1.548-2.265 2.775-2.33 6.13-.064 7.614-1.1 1.613-1.164-4.581-.065-6.581-.712-5.033-1.683a5.636 5.636 0 0 0 1.355-1.812c.645-1.164.452-1.1-1.226.389l-1.936 1.876-.451-5.112c-.581-7.506-.645-7.57-1.226-.906ZM534.675 303.088c-.323.259-.516 2.652-.516 5.306v4.788l-2.388-1.747-2.452-1.812 1.807 1.942c.968 1.035 1.549 2.07 1.29 2.33-.258.258-2.581.452-5.226.452-6.13 0-5.549.777.903 1.294l4.904.324-1.484 1.94-1.484 1.942 1.613-1.488a7.102 7.102 0 0 1 2.065-1.424c.258 0 .452 2.136.452 4.788 0 2.654.322 5.047.645 5.242.323.194.645-1.488.645-4.788 0-2.913.194-5.242.452-5.242.767.348 1.466.83 2.065 1.424l1.613 1.488-1.484-2.135-1.42-2.07 4.065-.066c6.13-.13 8.389-1.1 2.646-1.164-6.582-.065-7.163-.388-4.904-2.847l1.807-2.007-1.872 1.424c-1.032.776-2.065 1.424-2.387 1.424-.323 0-.581-2.2-.71-4.918-.129-2.717-.387-4.659-.645-4.4ZM672.631 392.32c-.968 1.488-1.355 2.912-.774 2.912a8.892 8.892 0 0 0 1.935-.648c1.226-.452 1.678-1.1 1.678-2.264 0-2.071-1.484-2.135-2.839 0ZM670.502 397.95c-.71.97-4.13 11-3.872 11.323.258.194 6.904-11.13 6.904-11.711 0-.712-2.452-.39-3.032.388ZM697.732 402.427c-3.162 3.818-6.776 12.618-6.776 16.566 0 3.494 3.614 1.94 6.388-2.719 1.033-1.747 1.033-2.199.323-3.235-1.226-1.618-.581-3.494 1.807-5.565 2.516-2.264 3.42-7.052 1.29-7.052-.716-.013-2.065.892-3.032 2.005ZM644.885 408.25c-2.646 3.106-6.195 11.713-6.195 15.013 0 5.435 4.388 4.012 8.453-2.653 5.937-9.914 4.13-19.813-2.258-12.36ZM607.008 408.69c-1.936.972-5.678 6.212-4.968 6.924.129.13 1.484-.064 3.032-.452 2.001-.518 3.098-1.295 4.001-2.719 2.323-3.817 1.42-5.486-2.065-3.752ZM563.002 410.244a35.764 35.764 0 0 0-2.323 3.56c-.71 1.422-.646 1.487 1.355 1.487 4.904 0 6.517-1.682 4.904-4.983-1.226-2.459-2.13-2.523-3.936-.064ZM490.862 394.455c-3.291 3.624-9.421 14.106-8.647 14.883.646.712 9.421-8.607 10.905-11.518 1.807-3.559 2.517-6.276 1.742-6.73-.322-.194-2.129 1.295-4 3.365ZM498.863 415.097c-2.581 3.3-2.904 4.53-2.065 7.118.774 2.459 2.71 2.912 3.743.905 1.032-1.81 1.677-10.417.839-10.417-.388 0-1.485 1.1-2.517 2.394Z"/></g></g></g></g></svg>